<?xml version="1.0" standalone="no"?>
<!DOCTYPE svg PUBLIC "-//W3C//DTD SVG 20010904//EN"
 "http://www.w3.org/TR/2001/REC-SVG-20010904/DTD/svg10.dtd">
<svg version="1.0" xmlns="http://www.w3.org/2000/svg"
 width="375.000000pt" height="375.000000pt" viewBox="0 0 375.000000 375.000000"
 preserveAspectRatio="xMidYMid meet">
<metadata>
Created by potrace 1.14, written by Peter Selinger 2001-2017
</metadata>
<g transform="translate(0.000000,375.000000) scale(0.100000,-0.100000)"
fill="#000000" stroke="none">
<path d="M250 3248 c-4 -364 0 -2761 4 -2765 4 -4 124 -7 181 -4 15 1 21 8 21
31 2 33 9 30 -96 34 l-45 1 -1 1343 -1 1343 62 -2 c71 -3 86 4 81 34 -3 21 -9
22 -104 25 l-102 3 0 -43z"/>
<path d="M3308 3278 c-3 -7 -2 -22 1 -33 5 -18 15 -20 75 -20 l70 0 0 -1333
c1 -938 -2 -1336 -10 -1343 -6 -5 -36 -8 -67 -7 -63 2 -66 1 -73 -36 -3 -20 0
-26 13 -27 18 -1 154 -1 183 0 13 1 15 162 14 1394 -1 765 -2 1398 -3 1405 -1
9 -28 12 -100 12 -70 0 -100 -4 -103 -12z"/>
<path d="M803 3135 c-68 -35 -113 -124 -93 -187 1 -5 3 -13 4 -18 5 -38 86
-102 146 -114 8 -2 24 -6 35 -10 99 -37 120 -56 110 -98 -17 -67 -174 -61
-191 7 -3 14 -11 26 -18 26 -20 2 -99 -1 -102 -4 -2 -1 2 -22 8 -46 15 -57 63
-105 121 -120 162 -40 294 31 301 162 4 85 -49 135 -192 182 -81 26 -112 50
-112 86 0 61 152 78 167 19 5 -20 15 -23 81 -22 42 1 45 4 37 41 -21 98 -190
152 -302 96z"/>
<path d="M2840 3154 c-98 -35 -169 -100 -198 -180 -14 -40 -20 -161 -9 -201
12 -47 41 -96 79 -134 62 -62 91 -73 193 -74 76 0 96 4 128 23 51 30 82 62
111 114 23 42 30 65 41 141 l5 37 -135 0 c-144 0 -137 2 -137 -50 0 -47 0 -47
67 -46 69 1 76 -5 53 -47 -44 -84 -159 -98 -234 -30 -94 86 -72 294 35 335 35
13 115 12 143 -3 25 -13 58 -47 58 -60 0 -5 86 -6 123 0 11 2 -28 72 -58 104
-42 44 -98 67 -178 72 -39 3 -79 2 -87 -1z"/>
<path d="M1647 3142 c-2 -4 -3 -133 -3 -287 l1 -280 150 0 c167 0 199 9 263
73 96 95 108 295 25 404 -28 37 -85 75 -119 81 -10 1 -23 5 -29 8 -15 9 -283
10 -288 1z m302 -120 c46 -34 65 -79 66 -157 0 -83 -23 -139 -72 -171 -27 -18
-46 -21 -105 -20 l-73 1 -2 175 c-2 96 -1 181 2 188 8 21 151 9 184 -16z"/>
<path d="M2814 2276 l-41 -11 21 -60 c28 -79 32 -84 59 -77 28 7 38 21 28 41
-4 9 -6 37 -5 63 3 54 -4 59 -62 44z"/>
<path d="M2895 2208 c2 -71 9 -83 47 -87 3 -1 18 31 33 70 31 80 29 84 -38 88
l-43 2 1 -73z"/>
<path d="M852 2250 c-5 -3 -30 -66 -56 -140 -27 -74 -72 -200 -102 -279 -29
-80 -51 -147 -49 -150 3 -2 30 -5 61 -6 38 -1 57 3 60 12 2 7 7 21 11 31 3 9
7 22 8 28 12 54 9 52 121 51 l106 -2 20 -61 20 -60 61 1 c66 2 71 8 47 60 -13
29 -110 297 -115 317 -2 9 -11 30 -19 47 -9 17 -16 32 -15 33 3 7 -26 94 -35
108 -11 15 -106 23 -124 10z m88 -228 c45 -140 48 -129 -32 -131 -38 -1 -68 2
-68 8 0 19 62 201 68 201 4 0 18 -35 32 -78z"/>
<path d="M1825 2250 c-7 -12 -4 -570 3 -571 4 -1 31 -2 60 -3 l52 -2 0 291 0
290 -56 1 c-30 0 -57 -3 -59 -6z"/>
<path d="M2740 2250 c0 -7 -3 -10 -6 -7 -8 7 -64 -30 -64 -42 0 -18 83 -101
101 -101 31 0 33 25 8 87 -25 63 -39 85 -39 63z"/>
<path d="M3012 2230 c-6 -17 -11 -32 -12 -35 0 -3 -8 -21 -16 -42 -15 -34 -15
-38 2 -50 10 -7 21 -13 25 -13 10 0 94 99 94 111 0 6 -19 22 -41 35 l-42 25
-10 -31z"/>
<path d="M2624 2167 c-50 -51 -48 -59 25 -98 l67 -35 17 22 c16 21 15 23 -36
77 l-52 55 -21 -21z"/>
<path d="M3090 2142 c-65 -71 -65 -70 -46 -91 17 -18 19 -18 82 12 35 17 64
36 64 41 0 12 -49 76 -58 76 -4 0 -23 -17 -42 -38z"/>
<path d="M2561 2061 c-18 -32 -23 -81 -9 -82 47 -4 87 -9 110 -13 26 -5 38 7
38 39 0 12 -102 75 -121 75 -5 0 -13 -8 -18 -19z"/>
<path d="M3133 2047 c-63 -31 -77 -53 -50 -74 12 -10 42 -9 140 6 16 2 -5 102
-21 100 -4 0 -35 -14 -69 -32z"/>
<path d="M2539 1955 c-1 -3 -1 -16 -1 -30 0 -83 -8 -78 89 -52 67 19 71 22 66
50 -4 20 -11 24 -51 26 -26 1 -59 4 -74 7 -16 2 -28 2 -29 -1z"/>
<path d="M3163 1953 c-5 -1 -25 -4 -46 -8 -34 -5 -38 -9 -35 -32 3 -23 11 -28
73 -44 38 -10 71 -17 72 -15 2 1 4 25 5 52 l3 49 -32 0 c-18 0 -36 -1 -40 -2z"/>
<path d="M2612 1849 c-34 -11 -61 -23 -59 -27 3 -4 12 -24 22 -44 9 -21 21
-38 27 -38 10 0 118 78 118 86 0 15 -22 44 -33 43 -7 0 -40 -9 -75 -20z"/>
<path d="M3067 1863 c-15 -14 -6 -40 22 -64 31 -27 77 -59 85 -59 11 0 47 83
39 90 -10 8 -110 40 -127 40 -7 0 -16 -3 -19 -7z"/>
<path d="M2678 1766 c-32 -22 -58 -46 -58 -52 0 -6 16 -25 35 -42 l34 -32 24
33 c14 17 32 47 42 66 16 32 16 34 -2 51 -17 17 -20 16 -75 -24z"/>
<path d="M3018 1793 c-15 -19 -13 -53 3 -53 5 0 9 -4 9 -9 0 -16 44 -80 56
-81 5 0 25 15 43 34 30 31 31 34 16 50 -9 9 -19 16 -23 16 -4 0 -22 14 -41 30
-39 35 -43 36 -63 13z"/>
<path d="M2755 1699 c-19 -33 -35 -62 -35 -64 0 -9 60 -35 80 -35 13 0 20 7
20 20 0 11 0 21 1 23 0 1 4 22 10 46 8 37 7 45 -8 57 -10 7 -21 14 -25 14 -4
0 -23 -27 -43 -61z"/>
<path d="M2957 1749 c-14 -8 -18 -19 -13 -43 3 -17 8 -47 11 -66 3 -19 8 -36
10 -39 9 -8 83 19 88 33 3 8 -1 20 -9 26 -8 7 -14 19 -14 26 0 8 -3 14 -8 14
-4 0 -13 14 -20 30 -15 33 -18 34 -45 19z"/>
<path d="M2856 1713 c-3 -16 -9 -46 -12 -68 -3 -22 -8 -43 -10 -46 -6 -10 17
-16 51 -14 68 5 64 -1 50 60 -16 67 -15 62 -15 80 0 10 -10 15 -29 15 -24 0
-30 -5 -35 -27z"/>
<path d="M1807 1183 c-9 -21 -44 -117 -78 -213 -34 -96 -65 -184 -69 -195 -4
-11 -8 -23 -9 -28 0 -4 -7 -20 -15 -35 -7 -15 -17 -37 -20 -49 -7 -22 -5 -23
57 -23 l64 0 16 60 17 61 107 -3 106 -3 20 -57 19 -58 65 0 c58 0 64 2 58 18
-17 41 -119 326 -152 422 -50 148 -44 140 -112 140 -58 0 -58 0 -74 -37z m88
-156 c4 -17 12 -38 17 -44 6 -7 8 -13 5 -13 -3 0 3 -23 14 -52 10 -28 16 -54
14 -57 -7 -6 -135 -7 -135 -1 -1 17 66 208 71 204 4 -2 11 -19 14 -37z"/>
<path d="M2710 929 l0 -289 133 0 c123 0 137 2 184 25 68 34 94 75 94 147 0
40 -30 96 -60 114 l-27 16 33 33 c18 18 34 44 34 57 5 83 -20 135 -79 164 -29
14 -66 19 -174 21 l-138 2 0 -290z m244 180 c26 -12 41 -49 31 -79 -9 -29 -46
-46 -102 -49 -49 -2 -53 -1 -54 21 -1 27 -1 112 0 116 3 7 104 0 125 -9z m28
-249 c18 -23 24 -66 10 -86 -14 -22 -52 -34 -106 -34 -38 0 -56 4 -57 13 -1
20 -1 90 0 114 1 20 5 22 68 19 55 -3 70 -8 85 -26z"/>
<path d="M762 1186 c-8 -12 -8 -535 0 -557 4 -11 34 -14 149 -13 79 1 154 2
167 3 21 1 23 5 20 53 l-3 52 -109 1 -109 0 -1 235 -1 235 -53 1 c-29 0 -56
-5 -60 -10z"/>
</g>
</svg>
